<svg xmlns="http://www.w3.org/2000/svg" width="95" height="88" viewBox="0 0 95 88" fill="none">
<rect x="10.0424" y="3.9915" width="83.0432" height="83.0432" rx="41.5216" fill="black"/>
<rect x="10.0424" y="3.9915" width="83.0432" height="83.0432" rx="41.5216" stroke="black" stroke-width="1.93124"/>
<circle cx="43" cy="43" r="42.5" fill="#ABFF83" stroke="black"/>
<path d="M70.0648 32.7764C69.8673 35.583 69.4813 38.3754 68.7693 41.1408C68.4756 42.2794 68.1416 43.3974 67.7609 44.4897C66.9358 46.8593 65.8885 49.1159 64.5579 51.2272C63.6366 52.6896 62.5776 54.0839 61.3626 55.3959C57.1525 59.9398 51.9042 62.6166 45.8359 63.831C42.8668 64.426 39.8716 64.4748 36.8726 64.4658C38.2499 61.6053 40.1757 59.0532 42.5146 56.9444C43.1175 56.4484 43.7231 55.9536 44.3273 55.4589C47.5355 52.8271 50.7438 50.1979 53.9546 47.5699C54.2821 47.3014 54.4822 46.9917 54.3809 46.556C54.2795 46.123 53.9676 45.9302 53.5544 45.8223C51.9562 45.4033 50.3592 44.9806 48.7622 44.5565C48.0345 44.3625 47.3095 44.1697 46.5831 43.9782C46.4778 43.9512 46.3778 43.9153 46.2478 43.8741C46.3453 43.7662 46.4116 43.6878 46.4817 43.6171C47.5641 42.5004 48.6478 41.385 49.729 40.2683C51.4494 38.4949 53.1711 36.7215 54.8889 34.9443C55.3658 34.4509 55.3372 33.9291 54.824 33.4794C54.8032 33.4601 54.7902 33.4305 54.7733 33.4061C51.0063 32.4089 47.2393 31.4117 43.471 30.4132C43.0591 30.4826 42.7797 30.7165 42.5432 31.057C39.1322 35.9544 35.7109 40.8453 32.2934 45.7387C31.7711 46.4866 32.0102 47.1266 32.9016 47.3631C34.3608 47.7498 35.82 48.1354 37.2806 48.5235C37.1117 48.6867 36.944 48.8537 36.779 49.0233C32.3844 53.5082 29.9142 58.9182 29.0254 65.0466C28.7097 67.2158 28.659 69.4209 28.4875 71.6094C28.4745 71.7867 28.4641 71.9628 28.4498 72.1748H28.3471C26.116 68.4456 24.5112 64.1047 23.7251 59.3873C23.46 56.8788 23.2326 54.3602 23.1845 51.844C23.1482 50.0025 23.2105 48.1636 23.4249 46.3286C23.9499 41.8335 25.352 37.9192 27.6013 34.5909C30.1195 30.8566 33.702 27.8598 38.298 25.6084C41.9936 23.8004 45.9672 23.0113 50.0863 23.2028C52.0744 23.2953 54.0547 23.6294 56.0285 23.9134C58.0803 24.2077 60.1191 24.3324 62.1526 24.2835C64.6748 24.2231 67.1814 23.8955 69.6788 23.2928C69.8361 23.2542 69.9959 23.2285 70.1518 23.1977C70.1817 23.2375 70.2207 23.2671 70.2207 23.2966C70.2727 26.4643 70.2883 29.6294 70.0648 32.7764Z" fill="#01252E"/>
</svg>
